<svg width="32" height="32" viewBox="0 0 32 32" fill="none" xmlns="http://www.w3.org/2000/svg">
<rect width="32" height="32" rx="8" fill="url(#paint0_linear_843_52534)"/>
<path d="M9.28125 9.60234C9.28125 7.83503 10.7139 6.40234 12.4812 6.40234H18.3843C19.3882 6.40234 20.3339 6.87343 20.9386 7.67474L23.0355 10.4534C23.4546 11.0086 23.6813 11.6853 23.6813 12.381V22.4023C23.6813 24.1697 22.2486 25.6023 20.4813 25.6023H12.4812C10.7139 25.6023 9.28125 24.1697 9.28125 22.4023V9.60234Z" fill="white"/>
<path d="M18.5625 9.60234V6.40234C19.4699 6.40234 20.3244 6.82933 20.8692 7.55497L23.0416 10.4485C23.4576 11.0027 23.6825 11.6769 23.6825 12.3698V12.8023H21.7625C19.9952 12.8023 18.5625 11.3697 18.5625 9.60234Z" fill="#D3040C"/>
<defs>
<linearGradient id="paint0_linear_843_52534" x1="16" y1="0" x2="16" y2="32" gradientUnits="userSpaceOnUse">
<stop stop-color="#FF7D7C"/>
<stop offset="1" stop-color="#FF4746"/>
</linearGradient>
</defs>
</svg>
