<svg width="164" height="165" viewBox="0 0 164 165" fill="none" xmlns="http://www.w3.org/2000/svg">
<path d="M28.6864 104.229C32.1925 113.098 27.3367 139.514 36.9774 144.72C46.618 149.925 66.4777 134.398 75.7186 134.398C84.9595 134.398 109.282 151.438 117.945 147.033C126.607 142.628 126.691 118.722 130.492 109.435C134.293 100.147 151.701 85.9115 151.701 76.0781C151.701 66.2446 126.221 55.5507 117.945 46.1475C109.668 36.7442 94.8213 10.7144 82.4813 10.7144C70.1412 10.7144 51.9981 36.4541 41.4027 46.1475C30.8074 55.8408 11.2848 59.8817 8.82663 68.5583C6.36846 77.2349 25.1802 95.3594 28.6864 104.229Z" fill="url(#paint0_radial_858_17067)"/>
<g filter="url(#filter0_f_858_17067)">
<path d="M99.1625 141.116C95.7064 135.558 108.464 137.492 112.985 133.192C117.505 128.892 124.63 119.548 125.313 126.995C125.995 134.443 123.468 142.056 118.947 146.356C114.426 150.655 102.619 146.674 99.1625 141.116Z" fill="url(#paint1_linear_858_17067)" fill-opacity="0.7"/>
</g>
<g filter="url(#filter1_f_858_17067)">
<path d="M50.4702 48.3134C61.1135 42.6061 63.3887 21.7052 81.3203 15.5352V74.3432L60.1109 86.6832L20.1985 66.8235C24.0548 56.7972 37.1661 55.4475 50.4702 48.3134Z" fill="url(#paint2_linear_858_17067)" fill-opacity="0.7"/>
</g>
<g filter="url(#filter2_f_858_17067)">
<path d="M53.1699 142.212C59.4942 138.664 72.5155 134.564 78.2356 132.957C77.2716 122.417 80.7422 104.035 80.7422 104.035C80.7422 104.035 64.3531 135.464 36.0095 144.719C39.0945 145.361 46.8456 145.76 53.1699 142.212Z" fill="url(#paint3_linear_858_17067)" fill-opacity="0.5"/>
</g>
<g filter="url(#filter3_f_858_17067)">
<path d="M127.403 107.508C132.416 102.109 145.077 86.6197 150.348 76.4648C132.03 93.6252 100.216 91.6971 100.216 91.6971C100.216 91.6971 121.169 100.952 127.403 107.508Z" fill="url(#paint4_linear_858_17067)" fill-opacity="0.5"/>
</g>
<g filter="url(#filter4_f_858_17067)">
<circle cx="39.9291" cy="39.9291" r="39.9291" transform="matrix(0.981923 -0.189283 -0.189283 -0.981923 44.0195 127.895)" fill="url(#paint5_radial_858_17067)"/>
</g>
<g filter="url(#filter5_f_858_17067)">
<ellipse cx="42.7812" cy="41.7746" rx="42.7812" ry="41.7746" transform="matrix(-0.981923 0.189283 0.189283 0.981923 111.59 33.4648)" fill="url(#paint6_radial_858_17067)"/>
</g>
<g filter="url(#filter6_f_858_17067)">
<ellipse cx="35.4362" cy="28.9565" rx="35.4362" ry="28.9565" transform="matrix(-0.999725 0.0234503 0.0420787 0.999114 107.473 53.3828)" fill="url(#paint7_linear_858_17067)"/>
</g>
<g filter="url(#filter7_f_858_17067)">
<ellipse cx="32.8029" cy="27.5531" rx="32.8029" ry="27.5531" transform="matrix(-0.999793 0.0203611 0.0446051 0.999005 104.926 54.832)" fill="url(#paint8_linear_858_17067)"/>
</g>
<g filter="url(#filter8_f_858_17067)">
<ellipse cx="30.2595" cy="25.4167" rx="30.2595" ry="25.4167" transform="matrix(-0.999793 0.0203611 0.0446051 0.999005 102.48 57.0156)" fill="url(#paint9_radial_858_17067)"/>
</g>
<g filter="url(#filter9_f_858_17067)">
<ellipse cx="30.2777" cy="25.1924" rx="30.2777" ry="25.1924" transform="matrix(0.99997 0.00773249 -0.0209906 -0.99978 43.6133 108.191)" fill="url(#paint10_radial_858_17067)"/>
</g>
<ellipse cx="28.9712" cy="23.7063" rx="28.9712" ry="23.7063" transform="matrix(-0.999725 0.0234503 0.0420787 0.999114 100.383 58.7891)" fill="#25004E"/>
<ellipse cx="28.9712" cy="23.7063" rx="28.9712" ry="23.7063" transform="matrix(-0.999725 0.0234503 0.0420787 0.999114 100.383 58.7891)" fill="url(#paint11_radial_858_17067)" fill-opacity="0.4"/>
<path d="M49.6731 76.1154C49.6384 84.1658 58.9309 79.299 71.0581 79.6831C83.1853 80.0672 93.5548 85.5567 93.5895 77.5063C93.6242 69.4558 83.8213 62.6183 71.6941 62.2342C59.567 61.8502 49.7078 68.065 49.6731 76.1154Z" fill="url(#paint12_linear_858_17067)" fill-opacity="0.8"/>
<g filter="url(#filter10_df_858_17067)">
<mask id="mask0_858_17067" style="mask-type:alpha" maskUnits="userSpaceOnUse" x="74" y="76" width="16" height="15">
<path d="M83.1289 76.1278C78.9695 75.5124 75.2011 78.8786 74.7116 83.6468C74.5095 85.6158 74.9003 87.5149 75.719 89.1106C77.307 87.2506 79.6123 86.2389 82.0532 86.6C84.4949 86.9615 86.5279 88.6155 87.692 90.8841C88.8094 89.5747 89.572 87.845 89.7742 85.8756C90.2634 81.1073 87.2881 76.7433 83.1289 76.1278Z" fill="#D9D9D9"/>
</mask>
<g mask="url(#mask0_858_17067)">
<rect width="23.8328" height="1.13827" transform="matrix(-0.98923 -0.14637 -0.102088 0.994775 94.8906 78.1523)" fill="#FF7FA9"/>
<rect width="23.8328" height="1.13827" transform="matrix(-0.98923 -0.14637 -0.102088 0.994775 94.7148 79.8516)" fill="#FF7FA9"/>
<rect width="23.8328" height="1.13827" transform="matrix(-0.98923 -0.14637 -0.102088 0.994775 94.5391 81.5508)" fill="#FF7FA9"/>
<rect width="23.8328" height="1.13827" transform="matrix(-0.98923 -0.14637 -0.102088 0.994775 94.3672 83.2461)" fill="#FF7FA9"/>
<rect width="23.8328" height="1.13827" transform="matrix(-0.98923 -0.14637 -0.102088 0.994775 94.1914 84.9453)" fill="#FF7FA9"/>
<rect width="23.8328" height="1.13827" transform="matrix(-0.98923 -0.14637 -0.102088 0.994775 94.0195 86.6445)" fill="#FF7FA9"/>
<rect width="23.8328" height="1.13827" transform="matrix(-0.98923 -0.14637 -0.102088 0.994775 93.8477 88.3438)" fill="#FF7FA9"/>
<rect width="23.8328" height="1.13827" transform="matrix(-0.98923 -0.14637 -0.102088 0.994775 93.668 90.043)" fill="#FF7FA9"/>
<rect width="23.8328" height="1.13827" transform="matrix(-0.98923 -0.14637 -0.102088 0.994775 93.4961 91.7422)" fill="#FF7FA9"/>
<rect width="23.8328" height="1.13827" transform="matrix(-0.98923 -0.14637 -0.102088 0.994775 93.3203 93.4414)" fill="#FF7FA9"/>
</g>
</g>
<g filter="url(#filter11_df_858_17067)">
<mask id="mask1_858_17067" style="mask-type:alpha" maskUnits="userSpaceOnUse" x="51" y="73" width="16" height="15">
<path d="M59.6562 73.2333C55.497 72.6179 51.7285 75.9842 51.2389 80.7523C51.0368 82.7219 51.4278 84.6221 52.2471 86.2182C53.8351 84.3584 56.1396 83.3473 58.5802 83.7084C61.0215 84.0696 63.054 85.7226 64.2183 87.9904C65.3361 86.6809 66.0993 84.951 66.3015 82.981C66.7906 78.2128 63.8155 73.8487 59.6562 73.2333Z" fill="#D9D9D9"/>
</mask>
<g mask="url(#mask1_858_17067)">
<rect width="23.8328" height="1.13827" transform="matrix(-0.98923 -0.14637 -0.102088 0.994775 71.4141 75.2578)" fill="#FF7FA9"/>
<rect width="23.8328" height="1.13827" transform="matrix(-0.98923 -0.14637 -0.102088 0.994775 71.2422 76.957)" fill="#FF7FA9"/>
<rect width="23.8328" height="1.13827" transform="matrix(-0.98923 -0.14637 -0.102088 0.994775 71.0664 78.6562)" fill="#FF7FA9"/>
<rect width="23.8328" height="1.13827" transform="matrix(-0.98923 -0.14637 -0.102088 0.994775 70.8906 80.3555)" fill="#FF7FA9"/>
<rect width="23.8328" height="1.13827" transform="matrix(-0.98923 -0.14637 -0.102088 0.994775 70.7148 82.0547)" fill="#FF7FA9"/>
<rect width="23.8328" height="1.13827" transform="matrix(-0.98923 -0.14637 -0.102088 0.994775 70.543 83.7539)" fill="#FF7FA9"/>
<rect width="23.8328" height="1.13827" transform="matrix(-0.98923 -0.14637 -0.102088 0.994775 70.3672 85.4492)" fill="#FF7FA9"/>
<rect width="23.8328" height="1.13827" transform="matrix(-0.98923 -0.14637 -0.102088 0.994775 70.1914 87.1484)" fill="#FF7FA9"/>
<rect width="23.8328" height="1.13827" transform="matrix(-0.98923 -0.14637 -0.102088 0.994775 70.0195 88.8477)" fill="#FF7FA9"/>
<rect width="23.8328" height="1.13827" transform="matrix(-0.98923 -0.14637 -0.102088 0.994775 69.8438 90.543)" fill="#FF7FA9"/>
</g>
</g>
<g filter="url(#filter12_f_858_17067)">
<ellipse cx="3.44966" cy="5.45114" rx="3.44966" ry="5.45114" transform="matrix(-0.447397 -0.894336 -0.866963 0.498373 65.5156 69.7852)" fill="url(#paint13_linear_858_17067)" fill-opacity="0.5"/>
</g>
<defs>
<filter id="filter0_f_858_17067" x="96.4996" y="122.132" width="30.997" height="28.1142" filterUnits="userSpaceOnUse" color-interpolation-filters="sRGB">
<feFlood flood-opacity="0" result="BackgroundImageFix"/>
<feBlend mode="normal" in="SourceGraphic" in2="BackgroundImageFix" result="shape"/>
<feGaussianBlur stdDeviation="1.03733" result="effect1_foregroundBlur_858_17067"/>
</filter>
<filter id="filter1_f_858_17067" x="10.5175" y="5.85343" width="80.4846" height="90.5119" filterUnits="userSpaceOnUse" color-interpolation-filters="sRGB">
<feFlood flood-opacity="0" result="BackgroundImageFix"/>
<feBlend mode="normal" in="SourceGraphic" in2="BackgroundImageFix" result="shape"/>
<feGaussianBlur stdDeviation="4.84086" result="effect1_foregroundBlur_858_17067"/>
</filter>
<filter id="filter2_f_858_17067" x="30.4754" y="98.5027" width="55.7992" height="52.1742" filterUnits="userSpaceOnUse" color-interpolation-filters="sRGB">
<feFlood flood-opacity="0" result="BackgroundImageFix"/>
<feBlend mode="normal" in="SourceGraphic" in2="BackgroundImageFix" result="shape"/>
<feGaussianBlur stdDeviation="2.76621" result="effect1_foregroundBlur_858_17067"/>
</filter>
<filter id="filter3_f_858_17067" x="92.6078" y="68.8578" width="65.347" height="46.2571" filterUnits="userSpaceOnUse" color-interpolation-filters="sRGB">
<feFlood flood-opacity="0" result="BackgroundImageFix"/>
<feBlend mode="normal" in="SourceGraphic" in2="BackgroundImageFix" result="shape"/>
<feGaussianBlur stdDeviation="3.80354" result="effect1_foregroundBlur_858_17067"/>
</filter>
<filter id="filter4_f_858_17067" x="29.5065" y="34.9674" width="92.3229" height="92.3229" filterUnits="userSpaceOnUse" color-interpolation-filters="sRGB">
<feFlood flood-opacity="0" result="BackgroundImageFix"/>
<feBlend mode="normal" in="SourceGraphic" in2="BackgroundImageFix" result="shape"/>
<feGaussianBlur stdDeviation="3.11198" result="effect1_foregroundBlur_858_17067"/>
</filter>
<filter id="filter5_f_858_17067" x="28.5104" y="34.5378" width="97.9557" height="96.0886" filterUnits="userSpaceOnUse" color-interpolation-filters="sRGB">
<feFlood flood-opacity="0" result="BackgroundImageFix"/>
<feBlend mode="normal" in="SourceGraphic" in2="BackgroundImageFix" result="shape"/>
<feGaussianBlur stdDeviation="3.11198" result="effect1_foregroundBlur_858_17067"/>
</filter>
<filter id="filter6_f_858_17067" x="36.4333" y="52.82" width="73.6607" height="60.649" filterUnits="userSpaceOnUse" color-interpolation-filters="sRGB">
<feFlood flood-opacity="0" result="BackgroundImageFix"/>
<feBlend mode="normal" in="SourceGraphic" in2="BackgroundImageFix" result="shape"/>
<feGaussianBlur stdDeviation="0.691552" result="effect1_foregroundBlur_858_17067"/>
</filter>
<filter id="filter7_f_858_17067" x="39.8475" y="54.8006" width="67.0237" height="56.4495" filterUnits="userSpaceOnUse" color-interpolation-filters="sRGB">
<feFlood flood-opacity="0" result="BackgroundImageFix"/>
<feBlend mode="normal" in="SourceGraphic" in2="BackgroundImageFix" result="shape"/>
<feGaussianBlur stdDeviation="0.345776" result="effect1_foregroundBlur_858_17067"/>
</filter>
<filter id="filter8_f_858_17067" x="40.3197" y="54.8588" width="66.0832" height="56.3293" filterUnits="userSpaceOnUse" color-interpolation-filters="sRGB">
<feFlood flood-opacity="0" result="BackgroundImageFix"/>
<feBlend mode="normal" in="SourceGraphic" in2="BackgroundImageFix" result="shape"/>
<feGaussianBlur stdDeviation="1.3831" result="effect1_foregroundBlur_858_17067"/>
</filter>
<filter id="filter9_f_858_17067" x="40.3119" y="55.2846" width="66.0988" height="55.9074" filterUnits="userSpaceOnUse" color-interpolation-filters="sRGB">
<feFlood flood-opacity="0" result="BackgroundImageFix"/>
<feBlend mode="normal" in="SourceGraphic" in2="BackgroundImageFix" result="shape"/>
<feGaussianBlur stdDeviation="1.3831" result="effect1_foregroundBlur_858_17067"/>
</filter>
<filter id="filter10_df_858_17067" x="69.8193" y="73.98" width="22.0835" height="21.7436" filterUnits="userSpaceOnUse" color-interpolation-filters="sRGB">
<feFlood flood-opacity="0" result="BackgroundImageFix"/>
<feColorMatrix in="SourceAlpha" type="matrix" values="0 0 0 0 0 0 0 0 0 0 0 0 0 0 0 0 0 0 127 0" result="hardAlpha"/>
<feOffset dx="-1.3831" dy="1.3831"/>
<feGaussianBlur stdDeviation="1.72888"/>
<feComposite in2="hardAlpha" operator="out"/>
<feColorMatrix type="matrix" values="0 0 0 0 1 0 0 0 0 0.498039 0 0 0 0 0.662745 0 0 0 0.7 0"/>
<feBlend mode="normal" in2="BackgroundImageFix" result="effect1_dropShadow_858_17067"/>
<feBlend mode="normal" in="SourceGraphic" in2="effect1_dropShadow_858_17067" result="shape"/>
<feGaussianBlur stdDeviation="0.345776" result="effect2_foregroundBlur_858_17067"/>
</filter>
<filter id="filter11_df_858_17067" x="46.3466" y="71.0855" width="22.0835" height="21.7476" filterUnits="userSpaceOnUse" color-interpolation-filters="sRGB">
<feFlood flood-opacity="0" result="BackgroundImageFix"/>
<feColorMatrix in="SourceAlpha" type="matrix" values="0 0 0 0 0 0 0 0 0 0 0 0 0 0 0 0 0 0 127 0" result="hardAlpha"/>
<feOffset dx="-1.3831" dy="1.3831"/>
<feGaussianBlur stdDeviation="1.72888"/>
<feComposite in2="hardAlpha" operator="out"/>
<feColorMatrix type="matrix" values="0 0 0 0 1 0 0 0 0 0.498039 0 0 0 0 0.662745 0 0 0 0.7 0"/>
<feBlend mode="normal" in2="BackgroundImageFix" result="effect1_dropShadow_858_17067"/>
<feBlend mode="normal" in="SourceGraphic" in2="effect1_dropShadow_858_17067" result="shape"/>
<feGaussianBlur stdDeviation="0.345776" result="effect2_foregroundBlur_858_17067"/>
</filter>
<filter id="filter12_f_858_17067" x="52.8903" y="63.9216" width="12.7115" height="10.9889" filterUnits="userSpaceOnUse" color-interpolation-filters="sRGB">
<feFlood flood-opacity="0" result="BackgroundImageFix"/>
<feBlend mode="normal" in="SourceGraphic" in2="BackgroundImageFix" result="shape"/>
<feGaussianBlur stdDeviation="0.691552" result="effect1_foregroundBlur_858_17067"/>
</filter>
<radialGradient id="paint0_radial_858_17067" cx="0" cy="0" r="1" gradientUnits="userSpaceOnUse" gradientTransform="translate(13.7213 25.751) rotate(51.2449) scale(170.655 170.656)">
<stop offset="0.00993242" stop-color="white"/>
<stop offset="0.371361" stop-color="#ECA8B9"/>
<stop offset="1" stop-color="#88B7EF"/>
</radialGradient>
<linearGradient id="paint1_linear_858_17067" x1="124.626" y1="150.453" x2="112.217" y2="130.843" gradientUnits="userSpaceOnUse">
<stop stop-color="#273899"/>
<stop offset="1" stop-color="#939ED7" stop-opacity="0"/>
</linearGradient>
<linearGradient id="paint2_linear_858_17067" x1="40.2511" y1="21.898" x2="63.8516" y2="76.8254" gradientUnits="userSpaceOnUse">
<stop stop-color="white"/>
<stop offset="1" stop-color="white" stop-opacity="0"/>
</linearGradient>
<linearGradient id="paint3_linear_858_17067" x1="90.3828" y1="119.846" x2="55.4045" y2="143.551" gradientUnits="userSpaceOnUse">
<stop stop-color="#A2B4E2" stop-opacity="0"/>
<stop offset="1" stop-color="#6B88D9"/>
</linearGradient>
<linearGradient id="paint4_linear_858_17067" x1="160.417" y1="88.4037" x2="131.15" y2="135.77" gradientUnits="userSpaceOnUse">
<stop stop-color="#6B88D9"/>
<stop offset="1" stop-color="#A2B4E2" stop-opacity="0"/>
</linearGradient>
<radialGradient id="paint5_radial_858_17067" cx="0" cy="0" r="1" gradientUnits="userSpaceOnUse" gradientTransform="translate(48.4097 7.24379) rotate(96.1979) scale(78.5506)">
<stop offset="0.641055" stop-color="white" stop-opacity="0"/>
<stop offset="1" stop-color="white"/>
</radialGradient>
<radialGradient id="paint6_radial_858_17067" cx="0" cy="0" r="1" gradientUnits="userSpaceOnUse" gradientTransform="translate(51.8675 7.57858) rotate(99.0541) scale(76.9292 78.7381)">
<stop offset="0.641055" stop-color="#A3CAF8" stop-opacity="0"/>
<stop offset="1" stop-color="#DB748E"/>
</radialGradient>
<linearGradient id="paint7_linear_858_17067" x1="35.5766" y1="-0.726713" x2="35.42" y2="57.9129" gradientUnits="userSpaceOnUse">
<stop stop-color="#5892D3"/>
<stop offset="1" stop-color="#FFFDFE" stop-opacity="0.49"/>
</linearGradient>
<linearGradient id="paint8_linear_858_17067" x1="32.8029" y1="0" x2="32.8029" y2="55.1061" gradientUnits="userSpaceOnUse">
<stop stop-color="#A4CDFC"/>
<stop offset="0.951089" stop-color="#DF598A"/>
<stop offset="0.989121" stop-color="#DF598A"/>
</linearGradient>
<radialGradient id="paint9_radial_858_17067" cx="0" cy="0" r="1" gradientUnits="userSpaceOnUse" gradientTransform="translate(47.6301 -25.429) rotate(108.037) scale(81.3621 99.2258)">
<stop offset="0.67649" stop-color="#CE3A70" stop-opacity="0"/>
<stop offset="1" stop-color="#8A123D"/>
</radialGradient>
<radialGradient id="paint10_radial_858_17067" cx="0" cy="0" r="1" gradientUnits="userSpaceOnUse" gradientTransform="translate(47.6587 -25.2046) rotate(108.197) scale(80.7179 99.1946)">
<stop offset="0.67649" stop-color="#3A75CE" stop-opacity="0"/>
<stop offset="1" stop-color="#12498A"/>
</radialGradient>
<radialGradient id="paint11_radial_858_17067" cx="0" cy="0" r="1" gradientUnits="userSpaceOnUse" gradientTransform="translate(33.4441 20.2488) rotate(170.188) scale(34.3395 26.9601)">
<stop offset="0.876066" stop-color="#25004E" stop-opacity="0"/>
<stop offset="0.914147" stop-color="#722043"/>
<stop offset="0.94895" stop-color="#992657" stop-opacity="0.92932"/>
<stop offset="0.987156" stop-color="#510824"/>
</radialGradient>
<linearGradient id="paint12_linear_858_17067" x1="71.6941" y1="62.2342" x2="70.7716" y2="91.3622" gradientUnits="userSpaceOnUse">
<stop stop-color="#6B69DD"/>
<stop offset="1" stop-color="#6931A7" stop-opacity="0"/>
</linearGradient>
<linearGradient id="paint13_linear_858_17067" x1="3.44966" y1="0" x2="3.44966" y2="10.9023" gradientUnits="userSpaceOnUse">
<stop stop-color="white"/>
<stop offset="1" stop-color="white" stop-opacity="0.3"/>
</linearGradient>
</defs>
</svg>
