<svg width="164" height="165" viewBox="0 0 164 165" fill="none" xmlns="http://www.w3.org/2000/svg">
<path d="M135.134 104.229C131.628 113.098 136.484 139.514 126.843 144.72C117.202 149.925 97.3426 134.398 88.1017 134.398C78.8608 134.398 54.538 151.438 45.8757 147.033C37.2133 142.628 37.1298 118.722 33.3286 109.435C29.5274 100.147 12.1191 85.9115 12.1192 76.0781C12.1192 66.2446 37.5989 55.5507 45.8756 46.1475C54.1524 36.7442 68.999 10.7144 81.3391 10.7144C93.6791 10.7144 111.822 36.4541 122.418 46.1475C133.013 55.8408 152.536 59.8817 154.994 68.5583C157.452 77.2349 138.64 95.3594 135.134 104.229Z" fill="url(#paint0_radial_858_17118)"/>
<g filter="url(#filter0_f_858_17118)">
<path d="M64.6578 141.116C68.1139 135.558 55.3562 137.492 50.8355 133.192C46.3149 128.892 39.1904 119.548 38.5077 126.995C37.8251 134.443 40.3526 142.056 44.8732 146.356C49.3939 150.655 61.2017 146.674 64.6578 141.116Z" fill="url(#paint1_linear_858_17118)" fill-opacity="0.7"/>
</g>
<g filter="url(#filter1_f_858_17118)">
<path d="M113.35 48.3134C102.707 42.6061 100.432 21.7052 82.5 15.5352V74.3432L103.709 86.6832L143.622 66.8235C139.766 56.7972 126.654 55.4475 113.35 48.3134Z" fill="url(#paint2_linear_858_17118)" fill-opacity="0.7"/>
</g>
<g filter="url(#filter2_f_858_17118)">
<path d="M110.65 142.212C104.326 138.664 91.3048 134.564 85.5847 132.957C86.5488 122.417 83.0781 104.035 83.0781 104.035C83.0781 104.035 99.4672 135.464 127.811 144.719C124.726 145.361 116.975 145.76 110.65 142.212Z" fill="url(#paint3_linear_858_17118)" fill-opacity="0.5"/>
</g>
<g filter="url(#filter3_f_858_17118)">
<path d="M36.4174 107.508C31.4043 102.109 18.7429 86.6197 13.4727 76.4648C31.7899 93.6252 63.6041 91.6971 63.6041 91.6971C63.6041 91.6971 42.6517 100.952 36.4174 107.508Z" fill="url(#paint4_linear_858_17118)" fill-opacity="0.5"/>
</g>
<g filter="url(#filter4_f_858_17118)">
<circle cx="88.1514" cy="81.1293" r="39.9291" transform="rotate(-169.089 88.1514 81.1293)" fill="url(#paint5_radial_858_17118)"/>
</g>
<g filter="url(#filter5_f_858_17118)">
<ellipse cx="86.335" cy="82.582" rx="42.7812" ry="41.7746" transform="rotate(10.911 86.335 82.582)" fill="url(#paint6_radial_858_17118)"/>
</g>
<g filter="url(#filter6_f_858_17118)">
<ellipse cx="35.4362" cy="28.9565" rx="35.4362" ry="28.9565" transform="matrix(0.999725 0.0234503 -0.0420787 0.999114 56.3477 53.3828)" fill="url(#paint7_linear_858_17118)"/>
</g>
<g filter="url(#filter7_f_858_17118)">
<ellipse cx="32.8029" cy="27.5531" rx="32.8029" ry="27.5531" transform="matrix(0.999793 0.0203611 -0.0446051 0.999005 58.8945 54.8281)" fill="url(#paint8_linear_858_17118)"/>
</g>
<g filter="url(#filter8_f_858_17118)">
<ellipse cx="30.2595" cy="25.4167" rx="30.2595" ry="25.4167" transform="matrix(0.999793 0.0203611 -0.0446051 0.999005 61.3398 57.0156)" fill="url(#paint9_radial_858_17118)"/>
</g>
<g filter="url(#filter9_f_858_17118)">
<ellipse cx="30.2777" cy="25.1924" rx="30.2777" ry="25.1924" transform="matrix(-0.99997 0.00773249 0.0209906 -0.99978 120.203 108.188)" fill="url(#paint10_radial_858_17118)"/>
</g>
<ellipse cx="28.9712" cy="23.7063" rx="28.9712" ry="23.7063" transform="matrix(0.999725 0.0234503 -0.0420787 0.999114 63.4375 58.7891)" fill="#25004E"/>
<ellipse cx="28.9712" cy="23.7063" rx="28.9712" ry="23.7063" transform="matrix(0.999725 0.0234503 -0.0420787 0.999114 63.4375 58.7891)" fill="url(#paint11_radial_858_17118)" fill-opacity="0.4"/>
<path d="M114.147 76.1115C114.182 84.1619 104.889 79.2951 92.7622 79.6792C80.635 80.0633 70.2655 85.5528 70.2308 77.5024C70.1961 69.4519 79.999 62.6144 92.1262 62.2303C104.253 61.8463 114.113 68.061 114.147 76.1115Z" fill="url(#paint12_linear_858_17118)" fill-opacity="0.8"/>
<g filter="url(#filter10_df_858_17118)">
<mask id="mask0_858_17118" style="mask-type:alpha" maskUnits="userSpaceOnUse" x="73" y="76" width="17" height="15">
<path d="M80.6875 76.1278C84.8469 75.5124 88.6154 78.8786 89.1048 83.6468C89.3069 85.6158 88.9161 87.5149 88.0974 89.1106C86.5094 87.2506 84.2041 86.2389 81.7632 86.6C79.3215 86.9615 77.2885 88.6155 76.1244 90.8841C75.007 89.5747 74.2444 87.845 74.0422 85.8756C73.553 81.1073 76.5283 76.7433 80.6875 76.1278Z" fill="#D9D9D9"/>
</mask>
<g mask="url(#mask0_858_17118)">
<rect width="23.8328" height="1.13827" transform="matrix(0.98923 -0.14637 0.102088 0.994775 68.9258 78.1523)" fill="#FF7FA9"/>
<rect width="23.8328" height="1.13827" transform="matrix(0.98923 -0.14637 0.102088 0.994775 69.1016 79.8516)" fill="#FF7FA9"/>
<rect width="23.8328" height="1.13827" transform="matrix(0.98923 -0.14637 0.102088 0.994775 69.2773 81.5508)" fill="#FF7FA9"/>
<rect width="23.8328" height="1.13827" transform="matrix(0.98923 -0.14637 0.102088 0.994775 69.4492 83.2461)" fill="#FF7FA9"/>
<rect width="23.8328" height="1.13827" transform="matrix(0.98923 -0.14637 0.102088 0.994775 69.625 84.9453)" fill="#FF7FA9"/>
<rect width="23.8328" height="1.13827" transform="matrix(0.98923 -0.14637 0.102088 0.994775 69.7969 86.6445)" fill="#FF7FA9"/>
<rect width="23.8328" height="1.13827" transform="matrix(0.98923 -0.14637 0.102088 0.994775 69.9688 88.3438)" fill="#FF7FA9"/>
<rect width="23.8328" height="1.13827" transform="matrix(0.98923 -0.14637 0.102088 0.994775 70.1484 90.043)" fill="#FF7FA9"/>
<rect width="23.8328" height="1.13827" transform="matrix(0.98923 -0.14637 0.102088 0.994775 70.3203 91.7422)" fill="#FF7FA9"/>
<rect width="23.8328" height="1.13827" transform="matrix(0.98923 -0.14637 0.102088 0.994775 70.4961 93.4414)" fill="#FF7FA9"/>
</g>
</g>
<g filter="url(#filter11_df_858_17118)">
<mask id="mask1_858_17118" style="mask-type:alpha" maskUnits="userSpaceOnUse" x="97" y="73" width="16" height="15">
<path d="M104.164 73.2294C108.323 72.614 112.092 75.9802 112.581 80.7484C112.784 82.718 112.393 84.6182 111.573 86.2143C109.985 84.3545 107.681 83.3434 105.24 83.7045C102.799 84.0657 100.766 85.7187 99.602 87.9865C98.4842 86.677 97.721 84.9471 97.5188 82.9771C97.0297 78.2089 100.005 73.8448 104.164 73.2294Z" fill="#D9D9D9"/>
</mask>
<g mask="url(#mask1_858_17118)">
<rect width="23.8328" height="1.13827" transform="matrix(0.98923 -0.14637 0.102088 0.994775 92.4062 75.2539)" fill="#FF7FA9"/>
<rect width="23.8328" height="1.13827" transform="matrix(0.98923 -0.14637 0.102088 0.994775 92.5781 76.9531)" fill="#FF7FA9"/>
<rect width="23.8328" height="1.13827" transform="matrix(0.98923 -0.14637 0.102088 0.994775 92.7539 78.6523)" fill="#FF7FA9"/>
<rect width="23.8328" height="1.13827" transform="matrix(0.98923 -0.14637 0.102088 0.994775 92.9297 80.3516)" fill="#FF7FA9"/>
<rect width="23.8328" height="1.13827" transform="matrix(0.98923 -0.14637 0.102088 0.994775 93.1055 82.0508)" fill="#FF7FA9"/>
<rect width="23.8328" height="1.13827" transform="matrix(0.98923 -0.14637 0.102088 0.994775 93.2773 83.75)" fill="#FF7FA9"/>
<rect width="23.8328" height="1.13827" transform="matrix(0.98923 -0.14637 0.102088 0.994775 93.4531 85.4453)" fill="#FF7FA9"/>
<rect width="23.8328" height="1.13827" transform="matrix(0.98923 -0.14637 0.102088 0.994775 93.6289 87.1445)" fill="#FF7FA9"/>
<rect width="23.8328" height="1.13827" transform="matrix(0.98923 -0.14637 0.102088 0.994775 93.8008 88.8438)" fill="#FF7FA9"/>
<rect width="23.8328" height="1.13827" transform="matrix(0.98923 -0.14637 0.102088 0.994775 93.9766 90.5391)" fill="#FF7FA9"/>
</g>
</g>
<g filter="url(#filter12_f_858_17118)">
<ellipse cx="3.44966" cy="5.45114" rx="3.44966" ry="5.45114" transform="matrix(0.447397 -0.894336 0.866963 0.498373 98.3008 69.7812)" fill="url(#paint13_linear_858_17118)" fill-opacity="0.5"/>
</g>
<defs>
<filter id="filter0_f_858_17118" x="36.3238" y="122.132" width="30.997" height="28.1142" filterUnits="userSpaceOnUse" color-interpolation-filters="sRGB">
<feFlood flood-opacity="0" result="BackgroundImageFix"/>
<feBlend mode="normal" in="SourceGraphic" in2="BackgroundImageFix" result="shape"/>
<feGaussianBlur stdDeviation="1.03733" result="effect1_foregroundBlur_858_17118"/>
</filter>
<filter id="filter1_f_858_17118" x="72.8183" y="5.85343" width="80.4846" height="90.5119" filterUnits="userSpaceOnUse" color-interpolation-filters="sRGB">
<feFlood flood-opacity="0" result="BackgroundImageFix"/>
<feBlend mode="normal" in="SourceGraphic" in2="BackgroundImageFix" result="shape"/>
<feGaussianBlur stdDeviation="4.84086" result="effect1_foregroundBlur_858_17118"/>
</filter>
<filter id="filter2_f_858_17118" x="77.5457" y="98.5027" width="55.7992" height="52.1742" filterUnits="userSpaceOnUse" color-interpolation-filters="sRGB">
<feFlood flood-opacity="0" result="BackgroundImageFix"/>
<feBlend mode="normal" in="SourceGraphic" in2="BackgroundImageFix" result="shape"/>
<feGaussianBlur stdDeviation="2.76621" result="effect1_foregroundBlur_858_17118"/>
</filter>
<filter id="filter3_f_858_17118" x="5.86558" y="68.8578" width="65.347" height="46.2571" filterUnits="userSpaceOnUse" color-interpolation-filters="sRGB">
<feFlood flood-opacity="0" result="BackgroundImageFix"/>
<feBlend mode="normal" in="SourceGraphic" in2="BackgroundImageFix" result="shape"/>
<feGaussianBlur stdDeviation="3.80354" result="effect1_foregroundBlur_858_17118"/>
</filter>
<filter id="filter4_f_858_17118" x="41.9909" y="34.9674" width="92.3229" height="92.3229" filterUnits="userSpaceOnUse" color-interpolation-filters="sRGB">
<feFlood flood-opacity="0" result="BackgroundImageFix"/>
<feBlend mode="normal" in="SourceGraphic" in2="BackgroundImageFix" result="shape"/>
<feGaussianBlur stdDeviation="3.11198" result="effect1_foregroundBlur_858_17118"/>
</filter>
<filter id="filter5_f_858_17118" x="37.3581" y="34.5378" width="97.9557" height="96.0886" filterUnits="userSpaceOnUse" color-interpolation-filters="sRGB">
<feFlood flood-opacity="0" result="BackgroundImageFix"/>
<feBlend mode="normal" in="SourceGraphic" in2="BackgroundImageFix" result="shape"/>
<feGaussianBlur stdDeviation="3.11198" result="effect1_foregroundBlur_858_17118"/>
</filter>
<filter id="filter6_f_858_17118" x="53.7263" y="52.82" width="73.6607" height="60.649" filterUnits="userSpaceOnUse" color-interpolation-filters="sRGB">
<feFlood flood-opacity="0" result="BackgroundImageFix"/>
<feBlend mode="normal" in="SourceGraphic" in2="BackgroundImageFix" result="shape"/>
<feGaussianBlur stdDeviation="0.691552" result="effect1_foregroundBlur_858_17118"/>
</filter>
<filter id="filter7_f_858_17118" x="56.9491" y="54.7967" width="67.0237" height="56.4495" filterUnits="userSpaceOnUse" color-interpolation-filters="sRGB">
<feFlood flood-opacity="0" result="BackgroundImageFix"/>
<feBlend mode="normal" in="SourceGraphic" in2="BackgroundImageFix" result="shape"/>
<feGaussianBlur stdDeviation="0.345776" result="effect1_foregroundBlur_858_17118"/>
</filter>
<filter id="filter8_f_858_17118" x="57.4174" y="54.8588" width="66.0832" height="56.3293" filterUnits="userSpaceOnUse" color-interpolation-filters="sRGB">
<feFlood flood-opacity="0" result="BackgroundImageFix"/>
<feBlend mode="normal" in="SourceGraphic" in2="BackgroundImageFix" result="shape"/>
<feGaussianBlur stdDeviation="1.3831" result="effect1_foregroundBlur_858_17118"/>
</filter>
<filter id="filter9_f_858_17118" x="57.4057" y="55.2807" width="66.0988" height="55.9074" filterUnits="userSpaceOnUse" color-interpolation-filters="sRGB">
<feFlood flood-opacity="0" result="BackgroundImageFix"/>
<feBlend mode="normal" in="SourceGraphic" in2="BackgroundImageFix" result="shape"/>
<feGaussianBlur stdDeviation="1.3831" result="effect1_foregroundBlur_858_17118"/>
</filter>
<filter id="filter10_df_858_17118" x="69.1474" y="73.98" width="22.0835" height="21.7436" filterUnits="userSpaceOnUse" color-interpolation-filters="sRGB">
<feFlood flood-opacity="0" result="BackgroundImageFix"/>
<feColorMatrix in="SourceAlpha" type="matrix" values="0 0 0 0 0 0 0 0 0 0 0 0 0 0 0 0 0 0 127 0" result="hardAlpha"/>
<feOffset dx="-1.3831" dy="1.3831"/>
<feGaussianBlur stdDeviation="1.72888"/>
<feComposite in2="hardAlpha" operator="out"/>
<feColorMatrix type="matrix" values="0 0 0 0 1 0 0 0 0 0.498039 0 0 0 0 0.662745 0 0 0 0.7 0"/>
<feBlend mode="normal" in2="BackgroundImageFix" result="effect1_dropShadow_858_17118"/>
<feBlend mode="normal" in="SourceGraphic" in2="effect1_dropShadow_858_17118" result="shape"/>
<feGaussianBlur stdDeviation="0.345776" result="effect2_foregroundBlur_858_17118"/>
</filter>
<filter id="filter11_df_858_17118" x="92.624" y="71.0816" width="22.0835" height="21.7476" filterUnits="userSpaceOnUse" color-interpolation-filters="sRGB">
<feFlood flood-opacity="0" result="BackgroundImageFix"/>
<feColorMatrix in="SourceAlpha" type="matrix" values="0 0 0 0 0 0 0 0 0 0 0 0 0 0 0 0 0 0 127 0" result="hardAlpha"/>
<feOffset dx="-1.3831" dy="1.3831"/>
<feGaussianBlur stdDeviation="1.72888"/>
<feComposite in2="hardAlpha" operator="out"/>
<feColorMatrix type="matrix" values="0 0 0 0 1 0 0 0 0 0.498039 0 0 0 0 0.662745 0 0 0 0.7 0"/>
<feBlend mode="normal" in2="BackgroundImageFix" result="effect1_dropShadow_858_17118"/>
<feBlend mode="normal" in="SourceGraphic" in2="effect1_dropShadow_858_17118" result="shape"/>
<feGaussianBlur stdDeviation="0.345776" result="effect2_foregroundBlur_858_17118"/>
</filter>
<filter id="filter12_f_858_17118" x="98.2146" y="63.9177" width="12.7115" height="10.9889" filterUnits="userSpaceOnUse" color-interpolation-filters="sRGB">
<feFlood flood-opacity="0" result="BackgroundImageFix"/>
<feBlend mode="normal" in="SourceGraphic" in2="BackgroundImageFix" result="shape"/>
<feGaussianBlur stdDeviation="0.691552" result="effect1_foregroundBlur_858_17118"/>
</filter>
<radialGradient id="paint0_radial_858_17118" cx="0" cy="0" r="1" gradientUnits="userSpaceOnUse" gradientTransform="translate(150.099 25.751) rotate(128.755) scale(170.655 170.656)">
<stop offset="0.00993242" stop-color="white"/>
<stop offset="0.371361" stop-color="#ECA8B9"/>
<stop offset="1" stop-color="#88B7EF"/>
</radialGradient>
<linearGradient id="paint1_linear_858_17118" x1="39.1941" y1="150.453" x2="51.603" y2="130.843" gradientUnits="userSpaceOnUse">
<stop stop-color="#273899"/>
<stop offset="1" stop-color="#939ED7" stop-opacity="0"/>
</linearGradient>
<linearGradient id="paint2_linear_858_17118" x1="123.569" y1="21.898" x2="99.9687" y2="76.8254" gradientUnits="userSpaceOnUse">
<stop stop-color="white"/>
<stop offset="1" stop-color="white" stop-opacity="0"/>
</linearGradient>
<linearGradient id="paint3_linear_858_17118" x1="73.4375" y1="119.846" x2="108.416" y2="143.551" gradientUnits="userSpaceOnUse">
<stop stop-color="#A2B4E2" stop-opacity="0"/>
<stop offset="1" stop-color="#6B88D9"/>
</linearGradient>
<linearGradient id="paint4_linear_858_17118" x1="3.40369" y1="88.4037" x2="32.6704" y2="135.77" gradientUnits="userSpaceOnUse">
<stop stop-color="#6B88D9"/>
<stop offset="1" stop-color="#A2B4E2" stop-opacity="0"/>
</linearGradient>
<radialGradient id="paint5_radial_858_17118" cx="0" cy="0" r="1" gradientUnits="userSpaceOnUse" gradientTransform="translate(96.6319 48.4439) rotate(96.1979) scale(78.5506)">
<stop offset="0.641055" stop-color="white" stop-opacity="0"/>
<stop offset="1" stop-color="white"/>
</radialGradient>
<radialGradient id="paint6_radial_858_17118" cx="0" cy="0" r="1" gradientUnits="userSpaceOnUse" gradientTransform="translate(95.4213 48.386) rotate(99.0541) scale(76.9292 78.7381)">
<stop offset="0.641055" stop-color="#A3CAF8" stop-opacity="0"/>
<stop offset="1" stop-color="#DB748E"/>
</radialGradient>
<linearGradient id="paint7_linear_858_17118" x1="35.5766" y1="-0.726713" x2="35.42" y2="57.9129" gradientUnits="userSpaceOnUse">
<stop stop-color="#5892D3"/>
<stop offset="1" stop-color="#FFFDFE" stop-opacity="0.49"/>
</linearGradient>
<linearGradient id="paint8_linear_858_17118" x1="32.8029" y1="0" x2="32.8029" y2="55.1061" gradientUnits="userSpaceOnUse">
<stop stop-color="#A4CDFC"/>
<stop offset="0.951089" stop-color="#DF598A"/>
<stop offset="0.989121" stop-color="#DF598A"/>
</linearGradient>
<radialGradient id="paint9_radial_858_17118" cx="0" cy="0" r="1" gradientUnits="userSpaceOnUse" gradientTransform="translate(47.6301 -25.429) rotate(108.037) scale(81.3621 99.2258)">
<stop offset="0.67649" stop-color="#CE3A70" stop-opacity="0"/>
<stop offset="1" stop-color="#8A123D"/>
</radialGradient>
<radialGradient id="paint10_radial_858_17118" cx="0" cy="0" r="1" gradientUnits="userSpaceOnUse" gradientTransform="translate(47.6587 -25.2046) rotate(108.197) scale(80.7179 99.1946)">
<stop offset="0.67649" stop-color="#3A75CE" stop-opacity="0"/>
<stop offset="1" stop-color="#12498A"/>
</radialGradient>
<radialGradient id="paint11_radial_858_17118" cx="0" cy="0" r="1" gradientUnits="userSpaceOnUse" gradientTransform="translate(33.4441 20.2488) rotate(170.188) scale(34.3395 26.9601)">
<stop offset="0.876066" stop-color="#25004E" stop-opacity="0"/>
<stop offset="0.914147" stop-color="#722043"/>
<stop offset="0.94895" stop-color="#992657" stop-opacity="0.92932"/>
<stop offset="0.987156" stop-color="#510824"/>
</radialGradient>
<linearGradient id="paint12_linear_858_17118" x1="92.1262" y1="62.2303" x2="93.0487" y2="91.3582" gradientUnits="userSpaceOnUse">
<stop stop-color="#6B69DD"/>
<stop offset="1" stop-color="#6931A7" stop-opacity="0"/>
</linearGradient>
<linearGradient id="paint13_linear_858_17118" x1="3.44966" y1="0" x2="3.44966" y2="10.9023" gradientUnits="userSpaceOnUse">
<stop stop-color="white"/>
<stop offset="1" stop-color="white" stop-opacity="0.3"/>
</linearGradient>
</defs>
</svg>
